<svg xmlns="http://www.w3.org/2000/svg" width="344.43" height="72.006" viewBox="0 0 344.43 72.006"><g id="Group_1243" data-name="Group 1243" transform="translate(-93.283 -81.014)"><g id="Group_1216" data-name="Group 1216" transform="translate(273.086 81.014)"><rect id="Rectangle_1245" data-name="Rectangle 1245" width="164.627" height="72.006" fill="#001e3b"></rect></g><g id="Group_1222" data-name="Group 1222" transform="translate(93.283 94.441)"><g id="Group_1217" data-name="Group 1217" transform="translate(88.273 0)"><path id="Path_410" data-name="Path 410" d="M227.783,101.085v9.526h19.291v18.481a8.714,8.714,0,0,1-14.988,6.054l-6.852,6.618A18.241,18.241,0,0,0,256.6,129.091V101.085Z" transform="translate(-225.234 -101.085)" fill="#001e3b"></path></g><g id="Group_1218" data-name="Group 1218" transform="translate(45.744 0)"><path id="Path_411" data-name="Path 411" d="M192.8,147.336h10.812l-15.58-46.251H177.241l-15.58,46.251h10.812l3.2-9.526H189.6Zm-13.921-19.051,3.758-11.176,3.758,11.176Z" transform="translate(-161.661 -101.085)" fill="#001e3b"></path></g><g id="Group_1219" data-name="Group 1219"><path id="Path_412" data-name="Path 412" d="M124.162,101.085l-9.8,24.53-9.8-24.53H93.283v46.251h9.526V121.407l6.612,16.576H119.3l6.614-16.581v25.934h9.526V101.085Z" transform="translate(-93.283 -101.085)" fill="#001e3b"></path></g><g id="Group_1220" data-name="Group 1220" transform="translate(119.982 0)"><path id="Path_413" data-name="Path 413" d="M303.772,147.336h10.812L299,101.085H288.214l-15.58,46.251h10.812l3.2-9.526H300.57Zm-13.921-19.051,3.758-11.176,3.758,11.176Z" transform="translate(-272.634 -101.085)" fill="#001e3b"></path></g><g id="Group_1221" data-name="Group 1221" transform="translate(154.738 0)"><path id="Path_414" data-name="Path 414" d="M331.782,104.586a3.6,3.6,0,1,1-3.586-3.5,3.518,3.518,0,0,1,3.586,3.5m-6.3,0a2.712,2.712,0,0,0,2.732,2.8,2.681,2.681,0,0,0,2.669-2.776,2.7,2.7,0,1,0-5.4-.021m2.155,1.836h-.811v-3.5a7.082,7.082,0,0,1,1.345-.106,2.184,2.184,0,0,1,1.217.256.97.97,0,0,1,.342.769.9.9,0,0,1-.726.811v.043a1.031,1.031,0,0,1,.64.854,2.676,2.676,0,0,0,.256.876h-.875a2.971,2.971,0,0,1-.278-.854c-.064-.384-.278-.555-.726-.555h-.385Zm.021-1.986h.385c.448,0,.811-.15.811-.512,0-.32-.235-.534-.747-.534a1.945,1.945,0,0,0-.449.043Z" transform="translate(-324.588 -101.085)" fill="#001e3b"></path></g></g><g id="Group_1223" data-name="Group 1223" transform="translate(295.587 99.684)"><path id="Path_415" data-name="Path 415" d="M403.457,142.708a14.534,14.534,0,0,1-5.743-6.189,21.219,21.219,0,0,1-2.023-9.633v-.024a21.148,21.148,0,0,1,2.023-9.621,14.477,14.477,0,0,1,5.743-6.165,17.266,17.266,0,0,1,8.8-2.155,16.673,16.673,0,0,1,7.513,1.637,13.831,13.831,0,0,1,5.3,4.5,13.371,13.371,0,0,1,2.336,6.551l.023.241h-7.1l-.1-.409a8.45,8.45,0,0,0-1.468-3.348,7.274,7.274,0,0,0-2.7-2.215,8.618,8.618,0,0,0-3.805-.8,8.228,8.228,0,0,0-4.841,1.433,9.232,9.232,0,0,0-3.167,4.058,15.9,15.9,0,0,0-1.12,6.262v.024a16.235,16.235,0,0,0,1.12,6.321,9.162,9.162,0,0,0,3.179,4.094,8.242,8.242,0,0,0,4.829,1.433,8.657,8.657,0,0,0,3.732-.771,7.322,7.322,0,0,0,2.747-2.228,8.944,8.944,0,0,0,1.565-3.528l.048-.24h7.1l-.025.264a13.3,13.3,0,0,1-2.348,6.551,13.811,13.811,0,0,1-5.31,4.491,16.777,16.777,0,0,1-7.513,1.626A17.177,17.177,0,0,1,403.457,142.708Z" transform="translate(-395.691 -108.922)" fill="#fff"></path><path id="Path_416" data-name="Path 416" d="M454.95,147.659a10.988,10.988,0,0,1-4.443-4.624,15.4,15.4,0,0,1-1.577-7.213v-.048a15,15,0,0,1,1.6-7.164A11.235,11.235,0,0,1,455,124a13.467,13.467,0,0,1,6.719-1.614,13.671,13.671,0,0,1,6.755,1.6,11.079,11.079,0,0,1,4.467,4.6,15.156,15.156,0,0,1,1.59,7.188v.048a15.375,15.375,0,0,1-1.578,7.225,11,11,0,0,1-4.443,4.612,15.154,15.154,0,0,1-13.558,0Zm9.777-4.841a5.9,5.9,0,0,0,1.939-2.7,11.917,11.917,0,0,0,.686-4.3v-.048a11.577,11.577,0,0,0-.7-4.25,5.943,5.943,0,0,0-1.962-2.7,4.9,4.9,0,0,0-2.975-.927,4.812,4.812,0,0,0-2.95.939,6.019,6.019,0,0,0-1.963,2.7,11.474,11.474,0,0,0-.7,4.239v.048a11.9,11.9,0,0,0,.686,4.3,5.812,5.812,0,0,0,1.963,2.7,4.979,4.979,0,0,0,3.01.928A4.836,4.836,0,0,0,464.727,142.817Z" transform="translate(-413.314 -113.378)" fill="#fff"></path><path id="Path_417" data-name="Path 417" d="M494.07,122.914H501.1v4.5h.145a6.924,6.924,0,0,1,2.1-3.709,5.546,5.546,0,0,1,3.78-1.325,8.205,8.205,0,0,1,1.108.073,5.7,5.7,0,0,1,.915.192v6.213a4.557,4.557,0,0,0-1.108-.3,9.042,9.042,0,0,0-1.446-.108,6.078,6.078,0,0,0-2.962.674,4.473,4.473,0,0,0-1.878,1.975,7.056,7.056,0,0,0-.65,3.179V148.73H494.07Z" transform="translate(-428.257 -113.378)" fill="#fff"></path><path id="Path_418" data-name="Path 418" d="M522.363,122.914h7.032v4.5h.169a8.784,8.784,0,0,1,1.842-2.7,7.841,7.841,0,0,1,2.673-1.735,9.1,9.1,0,0,1,3.36-.6,9.794,9.794,0,0,1,5.635,1.6,10.217,10.217,0,0,1,3.636,4.612,18.376,18.376,0,0,1,1.276,7.2v.024a18.546,18.546,0,0,1-1.264,7.2,10.277,10.277,0,0,1-3.6,4.623,9.58,9.58,0,0,1-5.587,1.614,9.383,9.383,0,0,1-3.4-.6,8.174,8.174,0,0,1-2.721-1.7,8.627,8.627,0,0,1-1.878-2.638h-.144v12.836h-7.032Zm15.8,19.591a5.852,5.852,0,0,0,1.963-2.637,10.833,10.833,0,0,0,.686-4.046V135.8a10.642,10.642,0,0,0-.7-4.057,5.859,5.859,0,0,0-1.974-2.613,5.38,5.38,0,0,0-6.021.012,6.015,6.015,0,0,0-2.023,2.637,10.35,10.35,0,0,0-.722,4.045v.025a10.121,10.121,0,0,0,.734,4.021,6.134,6.134,0,0,0,2.022,2.637,5.373,5.373,0,0,0,6.033,0Z" transform="translate(-437.622 -113.378)" fill="#fff"></path><path id="Path_419" data-name="Path 419" d="M567.217,157.385a3.924,3.924,0,0,1,0-5.538A3.8,3.8,0,0,1,570,150.715a3.9,3.9,0,1,1,0,7.8A3.805,3.805,0,0,1,567.217,157.385Z" transform="translate(-452.091 -122.756)" fill="#fff"></path></g></g></svg>