<svg xmlns="http://www.w3.org/2000/svg" xmlns:xlink="http://www.w3.org/1999/xlink" width="171.068" height="171.069" viewBox="0 0 171.068 171.069"><defs><clipPath id="a"><rect width="171.068" height="171.069" fill="none"></rect></clipPath></defs><g clip-path="url(#a)"><path d="M93.173,153.268a60.1,60.1,0,1,0-60.1-60.095,60.163,60.163,0,0,0,60.1,60.095m-56.535-54.4q-.281-2.812-.286-5.7a56.821,56.821,0,1,1,113.643,0c0,1.923-.1,3.824-.286,5.7-.161,1.6-.4,3.182-.693,4.744a56.312,56.312,0,0,1-3.267,11.081q-.709,1.725-1.523,3.395a56.869,56.869,0,0,1-5.035,8.356c-.645.889-1.309,1.763-2,2.613a57.3,57.3,0,0,1-6.1,6.393c-.772.693-1.567,1.36-2.376,2.011a56.975,56.975,0,0,1-7.059,4.847q-1.329.773-2.7,1.475a56.329,56.329,0,0,1-13.692,4.9q-2.006.436-4.061.729a56.169,56.169,0,0,1-16.2-.021c-1.37-.2-2.722-.45-4.058-.744A56.371,56.371,0,0,1,67.4,143.788q-1.374-.7-2.7-1.476a57.042,57.042,0,0,1-7.06-4.847c-.809-.651-1.6-1.318-2.375-2.011a57.285,57.285,0,0,1-6.1-6.393c-.694-.85-1.357-1.724-2-2.614a56.8,56.8,0,0,1-5.035-8.356c-.545-1.111-1.05-2.244-1.523-3.395a56.358,56.358,0,0,1-3.268-11.08c-.291-1.561-.531-3.141-.692-4.744" transform="translate(-7.639 -7.639)" fill="#100f0c"></path><path d="M85.534,0a85.535,85.535,0,1,0,85.534,85.535A85.632,85.632,0,0,0,85.534,0m0,167.951a82.416,82.416,0,1,1,82.416-82.416,82.509,82.509,0,0,1-82.416,82.416" fill="#100f0c"></path><path d="M23.722,103.978c.255-4.4-2.106-7.054-5.956-7.277s-6.5,2.136-6.757,6.54c-.249,4.293,2.11,6.981,5.96,7.2s6.5-2.174,6.752-6.467m-9.4-.544c.145-2.506.777-3.189,3.227-3.048s3,.9,2.853,3.4-.773,3.116-3.222,2.973-3-.821-2.858-3.327" transform="translate(-2.538 -22.328)" fill="#100f0c"></path><path d="M25.971,86.4,21.944,85.18l.414-1.36c.391-1.29.745-1.567,1.757-1.723l3.325-.533L28.6,77.73l-3.413.566a2.9,2.9,0,0,0-2.423,1.5l-.178-.054c.4-2.346-.424-3.621-2.3-4.189-2.313-.7-4.119.543-5.068,3.67l-2.1,6.9,11.832,3.594Zm-5.422-5.524-1.077,3.55-2.35-.714L18.2,80.165c.295-.971.632-1.255,1.567-.971,1.007.305,1.077.712.781,1.683" transform="translate(-3.032 -17.404)" fill="#100f0c"></path><path d="M26.329,68.045c3.321,1.965,6.638,1.289,8.621-2.064,1.476-2.495.82-4.1-.25-5.124l.094-.159,2.272,1.344,1.646-2.78-5.816-3.441-3.722,6.293,2.193,1.3L33.3,60.137c.726.621.461,1.323-.845,3.532-1.278,2.16-2.135,2.447-4.248,1.2s-2.255-2.17-.9-4.459c1.119-1.89,1.857-2.269,2.842-1.686l.111.066,1.974-3.337-.112-.066c-2.638-1.56-5.495-.355-7.629,3.252-2.293,3.877-1.486,7.442,1.835,9.407" transform="translate(-5.355 -12.636)" fill="#100f0c"></path><path d="M47.318,48.43c3.024-3.084,2.93-5.967.584-8.267l-5.127-5.026-2.429,2.477,4.928,4.832c1.252,1.227,1.285,1.958-.355,3.632s-2.372,1.655-3.624.428l-4.929-4.832-2.429,2.478,5.127,5.026c2.345,2.3,5.23,2.336,8.253-.748" transform="translate(-7.838 -8.114)" fill="#100f0c"></path><path d="M66.5,34.871l-1.7-2.612-5.98,3.9-5.051-7.743-2.9,1.895,6.753,10.355Z" transform="translate(-11.746 -6.562)" fill="#100f0c"></path><path d="M82.651,27.6l-1.14-2.9-6.649,2.611L71.482,18.7l-3.23,1.268,4.521,11.511Z" transform="translate(-15.762 -4.319)" fill="#100f0c"></path><path d="M102.24,17.083c-.566-3.817-3.419-5.931-7.782-5.283-4.254.631-6.406,3.489-5.84,7.305s3.455,5.926,7.71,5.293c4.364-.648,6.479-3.5,5.912-7.315m-6.4,4.029c-2.483.368-3.209-.121-3.57-2.549s.192-3.108,2.676-3.477,3.282.111,3.642,2.539-.265,3.119-2.748,3.488" transform="translate(-20.444 -2.698)" fill="#100f0c"></path><path d="M116.777,23.773c4.155.345,5.93-1.4,6.1-3.511.131-1.582-.549-3.194-3.528-3.885l-3.815-.89c-.654-.148-.861-.35-.828-.735.045-.534.45-.741,2.216-.594,2.317.192,2.679.518,2.606,1.4l-.022.276,3.457.287.009-.111c.228-2.759-1.505-4.624-5.422-4.949-4.45-.369-6.147,1.564-6.31,3.531-.165,1.987.891,3.315,3.164,3.818l3.819.835c1,.213,1.224.417,1.187.858-.046.551-.281.7-2.376.525-2.317-.192-2.593-.437-2.524-1.264l.032-.386-3.457-.287-.01.11c-.259,3.126,1.928,4.66,5.7,4.972" transform="translate(-25.647 -2.544)" fill="#100f0c"></path><path d="M133.516,24.512l5.564,1.865.165,2.469,3.779,1.268-1.143-13.425-4.707-1.578-8.987,10.027,3.692,1.237Zm3.468-3.957L138.4,18.83l.228.076.106,2.236.131,1.873-3.114-1.044Z" transform="translate(-29.603 -3.49)" fill="#100f0c"></path><path d="M155.377,30.27l1.059-1.78.2.135-.587,2.1-.943,4.653,3.476,2.373,3.991-2.571,1.745-1.312.2.135-1.272,1.635-2.883,4.223,2.866,1.957L170.2,31.607l-3.887-2.654-4.677,3.02-2.761,1.981-.2-.135.794-3.324,1.018-5.518L156.6,22.323l-6.975,10.213,2.866,1.957Z" transform="translate(-34.554 -5.155)" fill="#100f0c"></path><path d="M176.8,56.069l2.343-2.06-4.962-5.641,1.164-1.024,4.78,5.433,2.329-2.048-4.78-5.433,1.108-.975,4.963,5.641L186.09,47.9l-7.254-8.246-9.286,8.169Z" transform="translate(-39.154 -9.158)" fill="#100f0c"></path><path d="M182.639,64.923l4.243-2.322,2-1.264.115.211-1.384,2.546-2.425,5.492,1.773,3.239,10.849-5.936-1.665-3.045-4.195,2.295-2.284,1.439-.115-.21,1.626-2.952,2.416-5.237-1.772-3.239-10.85,5.936Z" transform="translate(-41.792 -12.919)" fill="#100f0c"></path><path d="M200.357,81.54l-8.907,2.481.931,3.342,8.907-2.481,1.168,4.2,3.006-.838-3.274-11.751-3,.837Z" transform="translate(-44.212 -17.664)" fill="#100f0c"></path><path d="M206.938,98.293l-12.344.691.614,10.962,3.114-.174-.42-7.5,1.547-.087.4,7.222,3.095-.173-.4-7.222,1.474-.083.421,7.5,3.113-.174Z" transform="translate(-44.938 -22.699)" fill="#100f0c"></path><path d="M36.306,167.88l2.068-.7.147.19-1.72,1.155-4.06,3.111,2.111,2.756,9.82-7.524-2.864-3.738-5.389,1.407-3.242,1.02-.146-.191,1.794-2.91,2.693-4.925-2.863-3.737-9.82,7.524,2.111,2.756,4.06-3.111,1.564-1.36.145.191L31.5,161.607l-2.351,4.128,2.56,3.342Z" transform="translate(-5.735 -35.516)" fill="#100f0c"></path><path d="M49.208,183.273l.943-1.231,5.745,4.4,1.884-2.462-5.745-4.4.9-1.172,5.966,4.566,1.895-2.477-8.72-6.675-7.518,9.82,8.721,6.675,1.9-2.477Z" transform="translate(-10.289 -40.141)" fill="#100f0c"></path><path d="M81.165,190.668,77,188.869l-4.178,2.559-.221-.1-1.158-4.861-4.169-1.8,1.89,7.408-.1.22-6.692,3.726,4.168,1.8,4.2-2.568.221.095,1.134,4.871,4.169,1.8-1.894-7.35.095-.22Z" transform="translate(-14.403 -42.647)" fill="#100f0c"></path><rect width="12.365" height="3.469" transform="translate(67.358 160.537) rotate(-77.778)" fill="#100f0c"></rect><path d="M106.985,195.155c-4.3-.109-6.889,2.336-6.987,6.191s2.365,6.429,6.663,6.538c4.151.105,6.691-1.805,6.775-5.107l.008-.313-3.874-.1-.008.313c-.035,1.4-.714,1.939-2.762,1.887-2.509-.064-3.176-.671-3.114-3.125s.76-3.027,3.269-2.963c2.047.053,2.7.623,2.662,2.025l-.008.313,3.875.1.008-.314c.084-3.3-2.356-5.339-6.507-5.445" transform="translate(-23.092 -45.067)" fill="#100f0c"></path><path d="M125.052,193.89l-2.613,13.215,3.808-.82.458-2.439,5.739-1.235,1.4,2.04,3.9-.839-7.836-10.966Zm2.276,6.629.338-1.847.338-2.206.235-.052,1.233,1.869,1.069,1.546Z" transform="translate(-28.275 -44.534)" fill="#100f0c"></path><path d="M151.993,183.381l-3.119,1.52,2.094,4.3,1.33,2.35-.216.105-2.871-1.763L144.1,187.23l-3.319,1.617,5.417,11.118,3.119-1.52L147.2,194.1l-1.168-2.06.215-.105,2.478,1.5,5.372,2.681,3.319-1.618Z" transform="translate(-32.51 -42.349)" fill="#100f0c"></path><path d="M164.679,174.668c-3.282,2.78-3.6,6.342-1.107,9.286s6.06,3.212,9.342.431c3.365-2.852,3.658-6.391,1.164-9.333s-6.033-3.235-9.4-.383m6.086,7.182c-1.915,1.623-2.79,1.59-4.377-.282s-1.477-2.742.438-4.364,2.846-1.638,4.434.235,1.42,2.789-.5,4.411" transform="translate(-37.394 -39.877)" fill="#100f0c"></path><path d="M189.786,159.126c-1.292-.922-3.026-1.163-5.144,1.043l-2.719,2.822c-.461.488-.741.561-1.056.335-.435-.311-.405-.765.624-2.207,1.351-1.893,1.817-2.037,2.538-1.522l.225.161,2.016-2.824-.09-.065c-2.253-1.608-4.744-1.074-7.029,2.126-2.6,3.635-1.8,6.083-.2,7.23s3.3.931,4.9-.764l2.673-2.854c.7-.751.984-.838,1.345-.581.451.321.457.6-.765,2.31-1.352,1.893-1.7,2-2.379,1.522l-.315-.225-2.016,2.824.09.064c2.553,1.823,4.99.729,7.189-2.35,2.424-3.395,1.836-5.81.108-7.044" transform="translate(-40.984 -36.023)" fill="#100f0c"></path><path d="M146.751,121.558l16.776,27.259c.694-.85,1.358-1.724,2-2.614l-16.973-27.579Z" transform="translate(-33.89 -27.394)" fill="#100f0c"></path><path d="M139.678,162.007l-1.774,2.882,5.338,8.673q1.374-.7,2.7-1.476l-6.019-9.781a1.558,1.558,0,0,0-.248-.3" transform="translate(-31.846 -37.413)" fill="#100f0c"></path><path d="M91.717,119.458l-.273-.446a1.538,1.538,0,0,0,.273.446" transform="translate(-21.117 -27.484)" fill="#100f0c"></path><path d="M68.45,118.669,51.5,146.213c.644.89,1.308,1.764,2,2.614l16.749-27.214Z" transform="translate(-11.893 -27.404)" fill="#100f0c"></path><path d="M80.54,162.046a1.527,1.527,0,0,0-.213.268L74.307,172.1q1.329.773,2.7,1.475l5.3-8.617Z" transform="translate(-17.16 -37.422)" fill="#100f0c"></path><path d="M141.029,143.645l-19.267,31.307q2.055-.292,4.061-.729l8.354-13.574,1.774-2.882,5.072-8.241c1.653,2.7,4.715,7.7,8.255,13.473.809-.651,1.6-1.318,2.375-2.011-3.653-5.958-7.01-11.439-9.315-15.205Z" transform="translate(-28.119 -33.172)" fill="#100f0c"></path><path d="M79.061,107.991l.273.446,6.433,10.523a1.521,1.521,0,0,1,.205-1.024l1.392-2.262-5.054-8.267-1.8-2.942L60.229,71.29,37.822,107.7c.16,1.6.4,3.182.692,4.744L60.22,77.174Z" transform="translate(-8.734 -16.463)" fill="#100f0c"></path><path d="M71.354,145.779c-2.3,3.765-5.662,9.247-9.315,15.205.772.693,1.566,1.36,2.376,2.011,3.535-5.767,6.6-10.763,8.25-13.464l5.042,8.262,1.775,2.907,8.229,13.483c1.337.295,2.689.547,4.058.744l-19.1-31.295Z" transform="translate(-14.327 -33.169)" fill="#100f0c"></path><path d="M127.363,96.832l-.68,1.105-4.2,6.831,1.25,2.066a1.538,1.538,0,1,1-2.633,1.593l-.431-.713-4.815,7.825,1.081,1.758a1.538,1.538,0,1,1-2.619,1.612l-.268-.436-5.21,8.464-5.084-8.315-.572.93a1.538,1.538,0,0,1-2.116.5c-.028-.018-.051-.04-.078-.059l7.841,12.824,34.251-55.651,21.709,35.275c.291-1.562.532-3.141.693-4.744l-22.4-36.4Z" transform="translate(-23.321 -16.465)" fill="#100f0c"></path><path d="M95.438,155.875l-34.02-55.644L42.971,130.2q.708,1.726,1.522,3.395l16.916-27.484,5.072,8.3,1.8,2.944,27.148,44.4,27.357-44.449,1.806-2.933,5.088-8.269L146.6,133.6q.817-1.667,1.523-3.395l-18.443-29.966Z" transform="translate(-9.923 -23.147)" fill="#100f0c"></path><path d="M120.872,102.677a1.538,1.538,0,1,0-2.633,1.592l.448.742,5.912,9.778.431.712a1.538,1.538,0,1,0,2.633-1.593l-1.25-2.066-4.13-6.831Z" transform="translate(-27.254 -23.54)" fill="#100f0c"></path><path d="M96.2,60.174c2.912-.593,6.313-.5,8.4,3.344,1.8,3.317,2.19,7.291,2.711,8.405a.247.247,0,0,0,.4.092.19.19,0,0,0,.05-.195c-.591-2.921-.5-6.332,3.334-8.427a32.534,32.534,0,0,1,3.2-1.33c2.34-.742,4.478-1.044,5.2-1.4a.245.245,0,0,0,.053-.387.222.222,0,0,0-.192-.064c-2.912.593-6.319.451-8.393-3.329-1.577-2.875-2.08-6.315-2.522-7.865a2.654,2.654,0,0,0-.224-.568.231.231,0,0,0-.392-.045.292.292,0,0,0-.021.175c.591,2.921.5,6.333-3.334,8.427-2.882,1.574-7.438,2.265-8.418,2.756a.234.234,0,0,0-.058.386c.065.06.2.026.2.026" transform="translate(-22.152 -11.157)" fill="#100f0c"></path><path d="M199.706,133.639a2.661,2.661,0,1,0,2.662,2.662,2.662,2.662,0,0,0-2.662-2.662" transform="translate(-45.504 -30.862)" fill="#100f0c"></path><path d="M21.068,133.639a2.661,2.661,0,1,0,2.662,2.662,2.662,2.662,0,0,0-2.662-2.662" transform="translate(-4.251 -30.862)" fill="#100f0c"></path><path d="M107.589,88.263V85.187h-3.3a14.422,14.422,0,0,1-11.8-6.138l-.883-1.26-2.519,1.767.883,1.259a17.5,17.5,0,0,0,13.343,7.418c.324.018.648.03.974.03Z" transform="translate(-20.573 -17.964)" fill="#100f0c"></path><path d="M115.754,90.541l5,8.052H109.715a1.538,1.538,0,1,0,0,3.076h3.272l-.448-.742a1.538,1.538,0,1,1,2.633-1.592l1.411,2.334h8.334l.68-1.105-8.13-13.1h-8.9V90.5h-3.3c-.326,0-.651-.011-.974-.029L93.331,108.2l1.8,2.942,12.733-20.6Z" transform="translate(-21.553 -20.198)" fill="#100f0c"></path><path d="M101.673,130.2a1.536,1.536,0,0,0,1.311-.732l.572-.93,5.193-8.437,5.1,8.288.268.435a1.538,1.538,0,1,0,2.619-1.612l-1.082-1.757L108.75,114.23l-6.992,11.361-1.392,2.262a1.545,1.545,0,0,0,.425,2.056c.027.019.05.042.078.059a1.533,1.533,0,0,0,.8.228" transform="translate(-23.126 -26.379)" fill="#100f0c"></path></g></svg>