<svg xmlns="http://www.w3.org/2000/svg" xmlns:xlink="http://www.w3.org/1999/xlink" width="655.774" height="210.575" viewBox="0 0 655.774 210.575"><defs><clipPath id="a"><rect width="655.774" height="210.575" fill="none"></rect></clipPath></defs><path d="M232.988,89.909l-14.336,33.236h10.466l2.58-6.151h15.775l2.53,6.151h10.715L246.332,89.909Zm2.232,18.7,1.935-4.663,2.133-5.606h.645l2.183,5.606,1.934,4.663Z" fill="#fff"></path><path d="M282.2,113.72h-.645l-8.582-23.812h-11.26l13.344,33.237h13.393L301.8,89.909H290.587Z" fill="#fff"></path><path d="M304.779,123.145H334.3v-8.384h-20.19v-4.167H333.55v-8.333H314.105V98.292H334.3V89.909H304.779Z" fill="#fff"></path><path d="M363.121,102.757l.446,7.243h-.645l-4.861-7.639-9.227-12.452h-9.921v33.237h9.326v-13l-.4-6.35h.645l4.217,6.548,9.821,12.8h9.922V89.909h-9.326Z" fill="#fff"></path><path d="M376.668,98.293h11.757v24.853h9.326V98.293h11.707V89.909h-32.79Z" fill="#fff"></path><g clip-path="url(#a)"><path d="M438.085,108.462c0,4.713-1.339,6.151-7.639,6.151s-7.64-1.438-7.64-6.151V89.909H413.48v19.3c0,8.83,5.358,14.436,16.966,14.436s16.965-5.606,16.965-14.436v-19.3h-9.326Z" fill="#fff"></path><path d="M475.989,109.751v-.5c6.35-.794,8.979-3.919,8.979-9.177,0-6.5-4.614-10.169-13.394-10.169h-19.4v33.236H461.5V111.834h3.82c3.621,0,4.613.695,5.8,3.175l3.968,8.136H485.86l-4.117-8.334c-1.24-2.53-2.331-4.167-5.754-5.06m-4.514-4.861H461.5v-6.6h9.971c2.728,0,3.72.645,3.72,3.274,0,2.828-.992,3.324-3.72,3.324" fill="#fff"></path><path d="M489.339,123.145h29.516v-8.384h-20.19v-4.167H518.11v-8.333H498.665V98.292h20.19V89.909H489.339Z" fill="#fff"></path><path d="M547.282,109.751v-.5c6.349-.794,8.979-3.919,8.979-9.177,0-6.5-4.613-10.169-13.394-10.169h-19.4v33.236H532.8V111.834h3.82c3.621,0,4.613.695,5.8,3.175l3.969,8.136h10.765l-4.117-8.334c-1.241-2.53-2.332-4.167-5.755-5.06m-4.514-4.861H532.8v-6.6h9.971c2.729,0,3.721.645,3.721,3.274,0,2.828-.992,3.324-3.721,3.324" fill="#fff"></path><path d="M560.136,106.528c0,10.368,6.845,17.114,18.4,17.114,11.855,0,18.6-6.746,18.6-17.114s-6.747-17.115-18.6-17.115c-11.559,0-18.4,6.747-18.4,17.115m18.4-8.185c6.746,0,8.681,1.587,8.681,8.185s-1.935,8.185-8.681,8.185-8.483-1.588-8.483-8.185,1.736-8.185,8.483-8.185" fill="#fff"></path><path d="M610.194,109.8l10.417,1.389c2.729.347,3.373.842,3.373,2.034,0,1.488-.6,1.934-6.25,1.934-6.251,0-7.044-.595-7.044-2.828V111.29h-9.326v.3c0,8.434,6.2,12.055,16.37,12.055,11.211,0,15.576-5.06,15.576-10.765,0-4.265-2.182-8.432-10.318-9.624l-10.417-1.537c-1.786-.248-2.381-.744-2.381-1.786,0-1.439,1.042-2.083,5.8-2.083,6.25,0,7.292.793,7.292,3.175v.744h9.326v-.3c0-7.441-5.06-12.055-15.626-12.055-12.005,0-16.122,5.556-16.122,10.865,0,5.357,3.125,8.68,9.326,9.524" fill="#fff"></path><path d="M34.859,20.147c-11.559,0-18.4,6.748-18.4,17.115s6.845,17.114,18.4,17.114c11.855,0,18.6-6.746,18.6-17.114s-6.748-17.115-18.6-17.115m0,25.3c-6.747,0-8.482-1.588-8.482-8.186s1.735-8.185,8.482-8.185,8.681,1.588,8.681,8.185-1.935,8.186-8.681,8.186" fill="#fff"></path><path d="M81.742,40.487v-.5c6.349-.8,8.978-3.92,8.978-9.177,0-6.5-4.613-10.17-13.393-10.17h-19.4V53.88h9.325V42.569h3.821c3.621,0,4.613.7,5.8,3.176l3.969,8.135H91.614L87.5,45.546c-1.241-2.529-2.332-4.166-5.755-5.059m-4.514-4.861H67.256v-6.6h9.972c2.728,0,3.72.645,3.72,3.274,0,2.828-.992,3.324-3.72,3.324" fill="#fff"></path><path d="M112.206,42.569h10.219c-.447,2.531-2.431,2.879-9.326,2.879-6.747,0-8.582-1.588-8.582-8.186s1.934-8.185,9.078-8.185c5.9,0,7.788,1.191,7.788,4.265v.348H131.8v-.348c0-8.234-6.7-13.195-17.957-13.195C101.738,20.147,94.6,26.9,94.6,37.262s6.1,17.114,16.568,17.114c7.788,0,10.615-3.721,11.509-7.59h.5V53.88h8.68V35.723H112.206Z" fill="#fff"></path><path d="M161.024,39.2c0,4.713-1.34,6.152-7.64,6.152s-7.639-1.439-7.639-6.152V20.643h-9.326v19.3c0,8.83,5.358,14.436,16.965,14.436S170.35,48.77,170.35,39.94v-19.3h-9.326Z" fill="#fff"></path><path d="M203.64,45.5h-19.2V20.643h-9.325V53.88H203.64Z" fill="#fff"></path><path d="M236.633,45.5h-19.2V20.643H208.11V53.88h28.523Z" fill="#fff"></path><path d="M259.01,54.376c11.855,0,18.6-6.746,18.6-17.113s-6.748-17.116-18.6-17.116c-11.559,0-18.4,6.748-18.4,17.116s6.845,17.113,18.4,17.113m0-25.3c6.746,0,8.681,1.588,8.681,8.186s-1.935,8.185-8.681,8.185-8.482-1.588-8.482-8.185,1.735-8.186,8.482-8.186" fill="#fff"></path><path d="M290.664,40.536l10.417,1.389c2.729.347,3.373.843,3.373,2.035,0,1.488-.6,1.933-6.25,1.933-6.251,0-7.044-.6-7.044-2.828V42.024h-9.326v.3c0,8.434,6.2,12.055,16.37,12.055,11.211,0,15.576-5.059,15.576-10.764,0-4.265-2.182-8.433-10.318-9.625L293.045,32.45c-1.786-.248-2.381-.744-2.381-1.785,0-1.44,1.041-2.084,5.8-2.084,6.25,0,7.292.793,7.292,3.176V32.5h9.326v-.3c0-7.441-5.06-12.055-15.626-12.055-12.005,0-16.122,5.557-16.122,10.866,0,5.357,3.125,8.679,9.326,9.523" fill="#fff"></path><path d="M329.064,47.729h15.774l2.531,6.15h10.714L343.7,20.643H330.353L316.017,53.879h10.467Zm5.456-13.047,2.134-5.6h.644l2.183,5.6,1.935,4.664h-8.831Z" fill="#fff"></path><path d="M370.392,40.139l-.348-5.557h.646l1.885,5.557,4.96,11.756h11.31l4.961-11.756,1.885-5.557h.644l-.346,5.557V53.88h9.326V20.644h-12.65l-5.8,13.791-3.125,8.582h-.645l-3.274-8.582-6.1-13.791H361.066V53.88h9.326Z" fill="#fff"></path><path d="M439.8,45.5H419.608V41.329h19.445V33H419.608V29.028H439.8V20.643H410.281V53.88H439.8Z" fill="#fff"></path><path d="M453.741,40.884l-.4-6.35h.645l4.216,6.547,9.822,12.8h9.922V20.644h-9.326V33.491l.446,7.245h-.644l-4.862-7.641-9.227-12.451h-9.921V53.88h9.326Z" fill="#fff"></path><path d="M493.927,53.88h9.326V29.028H514.96V20.644H482.17v8.384h11.757Z" fill="#fff"></path><path d="M548.7,45.5H528.508V41.329h19.445V33H528.508V29.028H548.7V20.643H519.181V53.88H548.7Z" fill="#fff"></path><path d="M291.229,171.75l-2.183-5.605H288.4l-2.132,5.605-1.936,4.662h8.831Z" fill="#fff"></path><path d="M379.886,174.328c0-6.6-1.935-8.184-8.681-8.184s-8.483,1.586-8.483,8.184,1.736,8.186,8.483,8.186,8.681-1.588,8.681-8.186" fill="#fff"></path><path d="M571.451,69.084V0H.24V138.241H.157v29.708L0,168.2v42.371H444.542V141.49H655.774V69.084ZM209.318,190.948h-12.2l-7.986-10.815h-.645l-7.64,10.815h-12.2l12.551-16.321v-.646l-12.551-16.27h12.2l8.037,10.764h.645l7.589-10.764h12.2l-12.5,16.469v.645ZM164.27,170.063V178.4H144.824v4.166h20.19v8.385H135.5V157.711h29.515v8.383h-20.19v3.969Zm-44.354,1.588-1.885,5.554-4.961,11.758H101.76L96.8,177.205l-1.886-5.554h-.645l.348,5.554v13.743H85.291V157.711H97.94l6.1,13.791,3.274,8.58h.645l3.125-8.58,5.8-13.791h12.649v33.237h-9.325V177.205l.347-5.554ZM36.3,153.69h4.1l2.33,3.755H37.119a1.408,1.408,0,0,0,0,2.817h1.65l3.187,5.271L39.7,169.2l-4.078-6.628-4.128,6.708-2.4-3.924Zm7.312,9.145-1.556-2.573H45.2Zm-5.572,9.054-2.487,4.042-2.417-3.954,2.48-4.028Zm-11.907-5.966a1.4,1.4,0,0,0,.2.326l3.733,6.105a1.4,1.4,0,0,0,.47.769l5.01,8.194,20.227-32.864L68.423,169v7.77l-12.647-20.55L35.557,189.074,15.468,156.215,2.894,176.645v-7.771L15.46,148.459Zm-23.243,16.1L15.46,161.6l2.41,3.942L2.894,189.876Zm0,13.231,16.624-27.01,16.031,26.222L51.7,168.211,68.4,195.332c.008.012.019.021.027.033v7.759c-3.661-5.93-10.5-17.084-15.491-25.235l-1.2-1.957L35.558,202.215l-6.609-10.827a1.4,1.4,0,0,0-.4-.658L19.51,175.924l-1.2,1.965c-4.956,8.1-11.734,19.15-15.413,25.109ZM68.423,190,53.358,165.524l2.418-3.928,12.647,20.549ZM45.3,191.768l2.391-3.885,11.534,18.741H54.435Zm-1.654,2.687,7.487,12.17H46.35l-5.1-8.286ZM16.8,206.624H12.018l11.513-18.707,2.381,3.9Zm10.755-12.106,2.381,3.9-5.051,8.208H20.111Zm-15.869-.444c3.091-5.036,6.177-10.073,7.816-12.75l2.378,3.9-13.2,21.445H3.934c.419-.667.92-1.479,1.537-2.478,1.7-2.756,3.961-6.434,6.219-10.113m19.9,7.042,3.387,5.549h-6.8Zm8.01-.09,3.47,5.639h-6.94Zm9.744-15.83,2.387-3.88c1.638,2.674,4.727,7.717,7.821,12.758,2.258,3.679,4.519,7.357,6.22,10.113.617,1,1.117,1.81,1.537,2.478H62.554Zm22.714-112.2H203.338V137.58H72.055ZM2.977,3.91H567.541V69.084H2.977Zm0,69.084H69.318V137.58H2.977Zm-.083,68.5H68.579v22.392l-12.8-20.8-9.281,15.08-4.521-7.284H36.213a8.933,8.933,0,0,1-7.576-3.976l-.716-1.212L25.5,147.119l.717,1.213a11.25,11.25,0,0,0,7.009,4.989l-5.775,9.343L15.468,143.072,2.894,163.5Zm210.4,16.221h9.326v33.236h-9.326Zm33.287,8.434c-6.746,0-8.581,1.586-8.581,8.184s1.835,8.185,8.581,8.185c5.507,0,7.293-1.488,7.293-5.258v-.843h10.417v.843c0,8.879-6.7,14.188-17.858,14.188-11.559,0-18.355-6.746-18.355-17.115s6.8-17.114,18.355-17.114c11.161,0,17.858,5.307,17.858,14.188v.844H253.871V171.4c0-3.772-1.786-5.258-7.293-5.258m21.187,24.8L282.1,157.711h13.344l14.386,33.237H299.116l-2.529-6.153H280.812l-2.58,6.153Zm70.249-20.389V157.711h9.326v33.237h-9.922l-9.822-12.8L323.38,171.6h-.645l.4,6.35v13h-9.326V157.711h9.921l9.227,12.452,4.861,7.638h.645Zm14.787,3.77c0-10.368,6.846-17.114,18.4-17.114,11.856,0,18.6,6.746,18.6,17.114s-6.746,17.115-18.6,17.115c-11.558,0-18.4-6.746-18.4-17.115m56.855-8.68c-4.763,0-5.8.644-5.8,2.082,0,1.043.6,1.539,2.381,1.787l10.417,1.537c8.135,1.192,10.318,5.358,10.318,9.623,0,5.705-4.365,10.766-15.576,10.766-10.169,0-16.37-3.621-16.37-12.055v-.3h9.326v1.041c0,2.233.793,2.828,7.044,2.828,5.655,0,6.25-.447,6.25-1.935,0-1.192-.645-1.686-3.373-2.033L403.852,177.6c-6.2-.844-9.326-4.168-9.326-9.525,0-5.309,4.117-10.864,16.122-10.864,10.566,0,15.626,4.614,15.626,12.055v.3h-9.327v-.744c0-2.381-1.041-3.174-7.291-3.174M651.864,137.58H207.248V72.994H651.864Z" fill="#fff"></path><path d="M59.371,105.728a.437.437,0,0,0-.378-.125c-5.741,1.165-12.457.887-16.545-6.543-3.109-5.65-4.1-12.411-4.972-15.459a5.185,5.185,0,0,0-.442-1.116.455.455,0,0,0-.772-.088.584.584,0,0,0-.042.346c1.165,5.741.98,12.447-6.573,16.562-5.681,3.1-14.662,4.452-16.595,5.418a.459.459,0,0,0-.114.758c.129.119.392.052.392.052,5.741-1.166,12.444-.978,16.562,6.572,3.556,6.52,4.317,14.331,5.345,16.521a.486.486,0,0,0,.785.18.373.373,0,0,0,.1-.383c-1.166-5.741-.978-12.444,6.573-16.562a64.75,64.75,0,0,1,6.313-2.616c4.613-1.458,8.828-2.053,10.26-2.757a.481.481,0,0,0,.1-.76" fill="#fff"></path><path d="M90.587,111.216h7.831v-2.2H93.3V106.7h4.717v-2.209H93.3v-2.3h5.116V99.986H90.587Z" fill="#fff"></path><path d="M111.14,105.782a4.031,4.031,0,0,0-1.074-.719,6.881,6.881,0,0,0-1.473-.482l-.965-.219a5.645,5.645,0,0,1-.691-.193,2.413,2.413,0,0,1-.524-.254,1.055,1.055,0,0,1-.329-.338.78.78,0,0,1-.1-.443.931.931,0,0,1,.18-.547,1.155,1.155,0,0,1,.527-.375,2.416,2.416,0,0,1,.878-.137,1.946,1.946,0,0,1,1.225.336,1.288,1.288,0,0,1,.486.941h2.6a3.3,3.3,0,0,0-.543-1.843,3.507,3.507,0,0,0-1.5-1.237,5.412,5.412,0,0,0-2.267-.441,5.594,5.594,0,0,0-2.276.439,3.715,3.715,0,0,0-1.562,1.223,3.009,3.009,0,0,0-.56,1.826,2.565,2.565,0,0,0,.833,2.027,5.1,5.1,0,0,0,2.3,1.082l1.174.274a6.558,6.558,0,0,1,1.012.31,1.568,1.568,0,0,1,.589.395.847.847,0,0,1,.2.547.969.969,0,0,1-.214.6,1.352,1.352,0,0,1-.6.413,2.617,2.617,0,0,1-.935.148,2.722,2.722,0,0,1-1.05-.188,1.58,1.58,0,0,1-.71-.546,1.694,1.694,0,0,1-.291-.907h-2.6a3.9,3.9,0,0,0,.6,2.178,3.464,3.464,0,0,0,1.629,1.283,6.535,6.535,0,0,0,2.457.422,6.346,6.346,0,0,0,2.4-.406,3.328,3.328,0,0,0,1.527-1.168,3.135,3.135,0,0,0,.538-1.826,3.226,3.226,0,0,0-.231-1.217,2.792,2.792,0,0,0-.661-.959" fill="#fff"></path><path d="M116.128,102.19h3.411v9.025h2.676V102.19h3.406v-2.2h-9.493Z" fill="#fff"></path><path d="M131.025,108.54a1.391,1.391,0,0,0-1.012.414,1.325,1.325,0,0,0-.414,1,1.345,1.345,0,0,0,.414,1.008,1.379,1.379,0,0,0,1.012.418,1.338,1.338,0,0,0,.7-.193,1.513,1.513,0,0,0,.521-.516,1.371,1.371,0,0,0,.206-.717,1.35,1.35,0,0,0-.437-1,1.389,1.389,0,0,0-.989-.414" fill="#fff"></path><path d="M141.055,108.956l1.344-1.238a20.176,20.176,0,0,0,1.889-1.826,5.214,5.214,0,0,0,.924-1.393,3.347,3.347,0,0,0,.258-1.273,3.085,3.085,0,0,0-.519-1.774,3.423,3.423,0,0,0-1.46-1.193,5.348,5.348,0,0,0-2.222-.428,4.944,4.944,0,0,0-2.174.453,3.408,3.408,0,0,0-1.451,1.285,3.694,3.694,0,0,0-.516,1.981H139.7a1.786,1.786,0,0,1,.195-.867,1.331,1.331,0,0,1,.545-.545,1.688,1.688,0,0,1,.817-.19,1.784,1.784,0,0,1,.818.182,1.376,1.376,0,0,1,.559.512,1.507,1.507,0,0,1,.2.8,1.738,1.738,0,0,1-.17.77,2.847,2.847,0,0,1-.493.7q-.324.348-.784.764l-4.1,3.588v1.951h8.314v-2.188h-4.552Z" fill="#fff"></path><path d="M157.418,100.509a5.072,5.072,0,0,0-5.067,0,4.348,4.348,0,0,0-1.635,1.968,8.933,8.933,0,0,0-.008,6.3,4.689,4.689,0,0,0,6.71,2.018,4.446,4.446,0,0,0,1.637-2.01,7.875,7.875,0,0,0,.575-3.168,7.643,7.643,0,0,0-.57-3.139,4.36,4.36,0,0,0-1.642-1.97m-1.116,7.863a1.618,1.618,0,0,1-1.421.9,1.484,1.484,0,0,1-1.025-.4,2.59,2.59,0,0,1-.689-1.209,7.132,7.132,0,0,1-.238-2.045,5.345,5.345,0,0,1,.543-2.7,1.6,1.6,0,0,1,1.409-.881,1.489,1.489,0,0,1,1.025.389,2.557,2.557,0,0,1,.686,1.181,6.887,6.887,0,0,1,.247,2.012,5.432,5.432,0,0,1-.537,2.754" fill="#fff"></path><path d="M164.183,101.708v2.346l2.512-1.535h.066v8.7h2.709V99.985h-2.517Z" fill="#fff"></path><path d="M183.571,102.788a4.488,4.488,0,0,0-1.037-1.709,4.035,4.035,0,0,0-1.5-.949,5.219,5.219,0,0,0-1.76-.3,4.888,4.888,0,0,0-2.276.5,3.709,3.709,0,0,0-2.074,3.447,3.874,3.874,0,0,0,.442,1.844,3.246,3.246,0,0,0,1.207,1.266,3.407,3.407,0,0,0,1.779.461,3.7,3.7,0,0,0,1.19-.192,3.085,3.085,0,0,0,1-.554,2.5,2.5,0,0,0,.666-.868h.066a4.895,4.895,0,0,1-.511,2.43,1.663,1.663,0,0,1-1.541.895,1.643,1.643,0,0,1-.97-.284,1.328,1.328,0,0,1-.532-.841h-2.671a3.718,3.718,0,0,0,.645,1.744,3.817,3.817,0,0,0,1.442,1.236,4.911,4.911,0,0,0,4.033.051,4.155,4.155,0,0,0,1.495-1.188,5.55,5.55,0,0,0,.957-1.888,8.642,8.642,0,0,0,.329-2.516,7.719,7.719,0,0,0-.378-2.582m-2.674,1.584a1.816,1.816,0,0,1-.37.568,1.7,1.7,0,0,1-1.245.518,1.661,1.661,0,0,1-.886-.236,1.7,1.7,0,0,1-.608-.635,1.865,1.865,0,0,1-.228-.9,1.744,1.744,0,0,1,.22-.9,1.69,1.69,0,0,1,.616-.637,1.721,1.721,0,0,1,.9-.236,1.673,1.673,0,0,1,.885.238,1.727,1.727,0,0,1,.617.639,1.825,1.825,0,0,1,.231.889,1.7,1.7,0,0,1-.129.691" fill="#fff"></path></g></svg>